<svg width="12" height="11" viewBox="0 0 12 11" fill="none" xmlns="http://www.w3.org/2000/svg">
<path d="M1.07512 1.04764L1.07507 1.04768C0.901878 1.20373 0.8 1.42012 0.8 1.65076C0.8 1.8814 0.901878 2.09778 1.07507 2.25384L1.0751 2.25386L4.68758 5.5079L1.0751 8.76194L1.07508 8.76192L1.07254 8.76428C0.904019 8.92145 0.806453 9.13661 0.808653 9.36466C0.810853 9.59267 0.912513 9.80603 1.08379 9.96031C1.25441 10.114 1.48121 10.1981 1.71452 10.2C1.94782 10.2018 2.17603 10.1212 2.34936 9.97043L2.34938 9.97045L2.35194 9.96814L5.99554 6.68608L9.63914 9.96814L9.63912 9.96817L9.64172 9.97043C9.81505 10.1212 10.0433 10.2018 10.2766 10.2C10.5099 10.1981 10.7367 10.114 10.9073 9.96031C11.0786 9.80603 11.1802 9.59267 11.1824 9.36466C11.1846 9.13661 11.0871 8.92145 10.9185 8.76428L10.9186 8.76426L10.916 8.76194L7.30349 5.5079L10.9148 2.25492C11.0022 2.17859 11.0732 2.08629 11.1226 1.98268C11.1723 1.87843 11.1989 1.7654 11.2 1.65037C11.2011 1.53534 11.1767 1.42184 11.129 1.31672C11.0812 1.21168 11.0115 1.11772 10.9248 1.03969C10.8382 0.961694 10.7364 0.900997 10.6257 0.86021C10.5151 0.819426 10.3971 0.799102 10.2786 0.80003C10.16 0.800958 10.0424 0.823127 9.93248 0.865668C9.8231 0.907991 9.72282 0.969903 9.63793 1.04875L5.99554 4.32972L2.35194 1.04766L2.35192 1.04764C2.17936 0.892249 1.94944 0.808037 1.71352 0.808037C1.4776 0.808037 1.24767 0.892249 1.07512 1.04764Z" fill="white" stroke="white" stroke-width="0.4"/>
</svg>
